# xmcd CD database file
#
# Track frame offsets:
#	150
#	21595
#	42773
#	59966
#	83419
#	99708
#	116355
#	134479
#	152496
#	171982
#	189656
#
# Disc length: 2756 seconds
#
# Revision: 0
# Processed by: cddbd v1.5.2PL0 Copyright (c) Steve Scherf et al.
# Submitted via: CDex 1.70
#
DISCID=950ac20b
DTITLE=Beverly Jo Scott - Swamp Cabaret
DYEAR=2014
DGENRE=Blues
TTITLE0=Mobile Bay
TTITLE1=If You Don't Want Me
TTITLE2=Love Me Wild
TTITLE3=Past Life
TTITLE4=Southern Pearl
TTITLE5=Worry
TTITLE6=Working After Midnight
TTITLE7=No Kiss Goodbye
TTITLE8=Are You The One
TTITLE9=Rockabilly Legend
TTITLE10=Fall Up That Hill
EXTD=YEAR: 2014
EXTT0=
EXTT1=
EXTT2=
EXTT3=
EXTT4=
EXTT5=
EXTT6=
EXTT7=
EXTT8=
EXTT9=
EXTT10=
PLAYORDER=
